<svg class="hidden" viewBox="0 0 24 20" xmlns="http://www.w3.org/2000/svg" xmlns:xlink="http://www.w3.org/1999/xlink"><style>:root>svg{display:none}:root>svg:target{display:block}</style><svg fill="none" viewBox="0 0 24 14" id="icon-btn" xmlns="http://www.w3.org/2000/svg"><path stroke="#000" stroke-width="1.5" stroke-linecap="round" d="M.75 1.25h22.5M.75 7.25h22.5M.75 13.25h22.5"/></svg><svg fill="none" viewBox="0 0 20 19" id="icon-cart" xmlns="http://www.w3.org/2000/svg"><path d="M19.48 4.78c-.227.69-.454 1.38-.677 2.07-.596 1.845-1.183 3.694-1.775 5.539-.14.439-.301.56-.76.56-2.864 0-5.727 0-8.591-.004-.16 0-.231.047-.278.2-.141.42-.298.835-.459 1.289h9.285c.078 0 .157 0 .235.008.27.035.459.247.45.497a.498.498 0 01-.47.482c-.176.012-.356.004-.571.004.38.482.529.991.407 1.56a1.7 1.7 0 01-.71 1.073c-.677.474-1.55.458-2.24-.153-.67-.592-.725-1.461-.141-2.464H9.361c.4.536.549 1.108.33 1.747-.13.376-.365.678-.69.897a1.753 1.753 0 01-2.221-.207c-.525-.506-.843-1.474-.102-2.453H6.31c-.443-.008-.659-.31-.514-.729.185-.52.373-1.042.56-1.559.02-.055.036-.11.06-.188h-.247c-.333-.008-.56-.196-.62-.517-.207-1.117-.41-2.233-.614-3.35-.357-1.943-.717-3.886-1.07-5.833-.02-.11-.067-.16-.168-.2-.76-.293-1.52-.595-2.28-.897-.318-.125-.47-.407-.4-.697.09-.364.447-.549.819-.408.478.18.952.373 1.426.56.415.161.826.33 1.242.486a.68.68 0 01.458.553L6.02 8.409c.196 1.07.391 2.139.583 3.208.02.114.067.153.188.153 3.013-.004 6.03-.004 9.042 0 .098 0 .16-.016.196-.13.678-2.123 1.36-4.242 2.037-6.365.004-.012 0-.024 0-.06-.133-.007-.266-.019-.4-.027-2.103-.09-4.207-.176-6.31-.266-1.305-.055-2.61-.114-3.914-.172-.372-.016-.62-.27-.607-.62.011-.336.278-.575.642-.563.588.02 1.18.05 1.767.074 1.258.055 2.511.114 3.769.164 1.959.087 3.917.169 5.876.255.314.012.486.196.592.47v.25zm-4.932 11.04a.793.793 0 00-.799.78c-.004.431.36.792.791.792a.79.79 0 00.788-.776.787.787 0 00-.78-.795zm-5.747.784a.783.783 0 00-.795-.783.784.784 0 00-.78.78.792.792 0 00.788.795.788.788 0 00.787-.792z" fill="#000" stroke="#000" stroke-width=".5" stroke-miterlimit="10"/></svg><svg fill="none" viewBox="0 0 23 17" id="icon-display-1" xmlns="http://www.w3.org/2000/svg"><path fill="#252525" d="M0 6h5v5H0zm0-6h5v5H0zm6 0h17v5H6zm0 6h17v5H6zm0 6h17v5H6zm-6 0h5v5H0z"/></svg><svg fill="none" viewBox="0 0 23 17" id="icon-display-2" xmlns="http://www.w3.org/2000/svg"><path fill="#252525" d="M0 0h11v17H0zm12 0h11v17H12z"/></svg><svg fill="none" viewBox="0 0 23 17" id="icon-display-3" xmlns="http://www.w3.org/2000/svg"><path fill="#252525" d="M0 0h7v17H0zM8 0h7v17H8zM16 0h7v17h-7z"/></svg><svg fill="none" viewBox="0 0 23 17" id="icon-display-4" xmlns="http://www.w3.org/2000/svg"><path fill="#252525" d="M0 0h5v17H0zM6 0h5v17H6zM12 0h5v17h-5zM18 0h5v17h-5z"/></svg><svg fill="none" viewBox="0 0 23 17" id="icon-display-5" xmlns="http://www.w3.org/2000/svg"><path fill="#252525" d="M0 0h4v17H0zm5 0h4v17H5zm5 0h3v17h-3zm4 0h4v17h-4zm5 0h4v17h-4z"/></svg><svg fill="none" viewBox="0 0 12 11" id="icon-filter" xmlns="http://www.w3.org/2000/svg"><path d="M11.539.923H5.077A.924.924 0 004.154 0H3.23a.924.924 0 00-.923.923H.462a.461.461 0 100 .923h1.846c0 .51.414.923.923.923h.923a.924.924 0 00.923-.923h6.462a.461.461 0 100-.923zm-8.308.923V.923h.923v.923h-.923zm8.308 2.769h-2.77a.924.924 0 00-.923-.923h-.923A.924.924 0 006 4.615H.462a.461.461 0 100 .924H6c0 .509.414.923.923.923h.923c.51 0 .923-.414.923-.923h2.77a.461.461 0 100-.924zm-4.616.924v-.924h.923v.924h-.923zm4.616 2.769H5.077a.924.924 0 00-.923-.923H3.23a.924.924 0 00-.923.923H.462a.461.461 0 100 .923h1.846c0 .509.414.923.923.923h.923a.924.924 0 00.923-.923h6.462a.461.461 0 100-.923zM3.23 9.23v-.923h.923v.923H3.23z" fill="#000"/></svg><svg fill="none" viewBox="0 0 21 19" id="icon-heart" xmlns="http://www.w3.org/2000/svg"><path d="M.61 6.428c.065-.382.102-.767.2-1.14.512-1.96 1.66-3.393 3.62-4.01C6.524.616 8.35 1.15 9.86 2.744c.18.187.337.393.513.602.172-.202.329-.404.505-.595.834-.897 1.829-1.522 3.06-1.68 1.9-.242 3.526.338 4.775 1.8 1.25 1.462 1.616 3.19 1.328 5.068-.183 1.19-.725 2.225-1.436 3.18-.931 1.252-2.068 2.307-3.239 3.328-1.38 1.2-2.771 2.394-4.16 3.587-.534.46-1.106.478-1.619.037-1.81-1.57-3.624-3.134-5.412-4.731a13.689 13.689 0 01-2.39-2.738C1.157 9.633.735 8.59.637 7.43c-.004-.045-.019-.086-.03-.127.004-.292.004-.583.004-.875zm9.76 10.809c.048-.037.089-.067.126-.101 1.545-1.335 3.097-2.66 4.627-4.006 1.07-.942 2.087-1.94 2.876-3.138.756-1.14 1.126-2.382.954-3.759-.187-1.484-.823-2.715-2.14-3.49-1.226-.721-2.524-.81-3.826-.182-.77.37-1.339.972-1.818 1.671-.067.101-.13.206-.202.303-.314.43-.875.427-1.193.004-.276-.37-.53-.763-.849-1.1-1.02-1.08-2.285-1.5-3.74-1.185-1.57.34-2.603 1.335-3.123 2.831-.606 1.74-.318 3.378.685 4.904.62.946 1.383 1.776 2.221 2.528 1.384 1.245 2.798 2.46 4.197 3.684.4.348.8.688 1.204 1.036z" fill="#000" stroke="#000" stroke-width=".5" stroke-miterlimit="10"/></svg><svg fill="none" viewBox="0 0 18 20" id="icon-play" xmlns="http://www.w3.org/2000/svg"><path d="M3.595.316A2.403 2.403 0 000 2.402v15.082a2.403 2.403 0 003.595 2.086l13.195-7.543a2.403 2.403 0 000-4.17L3.595.316z" fill="#fff"/></svg><svg fill="none" viewBox="0 0 17 19" id="icon-profile" xmlns="http://www.w3.org/2000/svg"><path d="M12.168 9.374c1.036.59 1.828 1.397 2.429 2.4.641 1.077 1.027 2.247 1.202 3.477.114.804.15 1.62.199 2.433.028.459-.236.707-.699.707H1.8c-.471 0-.719-.244-.715-.72.012-1.636.22-3.236.84-4.763.602-1.475 1.524-2.68 2.921-3.493.02-.012.04-.033.06-.049-2.066-2.177-1.603-5.503.435-7.2a4.98 4.98 0 016.613.186 4.98 4.98 0 01.215 7.022zm2.575 7.77c-.077-1.637-.333-3.217-1.158-4.65-.552-.963-1.316-1.702-2.327-2.186-.122-.06-.211-.056-.333.008-1.596.845-3.196.833-4.788-.012-.102-.053-.183-.065-.285-.012a5.172 5.172 0 00-1.974 1.62c-.755 1.024-1.153 2.19-1.352 3.433-.094.588-.142 1.19-.215 1.799h12.432zM12.269 5.97a3.734 3.734 0 00-3.724-3.733 3.734 3.734 0 00-3.733 3.725 3.734 3.734 0 003.725 3.732 3.731 3.731 0 003.732-3.724z" fill="#000" stroke="#000" stroke-width=".5" stroke-miterlimit="10"/></svg><svg fill="none" viewBox="0 0 19 19" id="icon-search" xmlns="http://www.w3.org/2000/svg"><path d="M12.947 13.958c-1.87 1.451-3.965 1.96-6.272 1.451-1.769-.387-3.195-1.34-4.263-2.804C.202 9.58.627 5.44 3.398 2.88c2.633-2.433 6.84-2.506 9.59-.211 2.955 2.465 3.599 7.03.99 10.262.05.053.102.11.155.163 1.203 1.202 2.409 2.405 3.607 3.615.123.122.22.294.261.46.073.314-.094.604-.367.747a.71.71 0 01-.843-.13c-.355-.347-.701-.698-1.048-1.048-.888-.885-1.773-1.773-2.661-2.658-.04-.04-.086-.077-.135-.122zM8.317 2.42c-3.22-.008-5.86 2.62-5.877 5.857-.016 3.232 2.621 5.885 5.857 5.893 3.224.008 5.873-2.62 5.89-5.844a5.883 5.883 0 00-5.87-5.906z" fill="#000" stroke="#000" stroke-width=".5" stroke-miterlimit="10"/></svg><svg fill="none" viewBox="0 0 9 16" id="social-fb" xmlns="http://www.w3.org/2000/svg"><path d="M2.46 16h2.93V8.7h2.45l.37-2.84H5.39V4.04c0-.82.23-1.38 1.41-1.38h1.51V.11C8.05.08 7.16 0 6.12 0 3.94 0 2.46 1.33 2.46 3.76v2.1H0V8.7h2.46V16z" fill="#fff"/></svg><svg fill="none" viewBox="0 0 19 19" id="social-in" xmlns="http://www.w3.org/2000/svg"><path d="M18.141 5.324a6.531 6.531 0 00-.419-2.216A4.61 4.61 0 0015.09.475a6.606 6.606 0 00-2.186-.42C11.941.012 11.636 0 9.194 0S6.44 0 5.484.055A6.606 6.606 0 003.3.475 4.607 4.607 0 00.666 3.108a6.554 6.554 0 00-.419 2.185c-.043.963-.056 1.268-.056 3.71s0 2.754.056 3.71c.015.748.156 1.486.42 2.187A4.61 4.61 0 003.3 17.532a6.583 6.583 0 002.185.45c.963.043 1.268.056 3.71.056s2.755 0 3.71-.056a6.59 6.59 0 002.186-.419 4.613 4.613 0 002.633-2.633c.263-.7.404-1.438.42-2.187.042-.962.055-1.267.055-3.71-.002-2.442-.002-2.752-.058-3.709zm-8.953 8.297a4.622 4.622 0 01-4.623-4.623 4.622 4.622 0 114.623 4.623zm4.807-8.339a1.077 1.077 0 11-.002-2.154 1.077 1.077 0 01.002 2.154z" fill="#fff"/><path d="M9.19 12.001a3.003 3.003 0 100-6.006 3.003 3.003 0 000 6.006z" fill="#fff"/></svg><svg fill="none" viewBox="0 0 19 15" id="social-tw" xmlns="http://www.w3.org/2000/svg"><path d="M18.192 1.72c-.49.73-1.11 1.38-1.83 1.9.01.15.01.31.01.47 0 4.85-3.69 10.44-10.43 10.44-2.07 0-4-.61-5.63-1.65.29.03.58.05.88.05 1.72 0 3.3-.59 4.55-1.57a3.671 3.671 0 01-3.42-2.55c.22.04.45.07.69.07.33 0 .66-.05.96-.13a3.68 3.68 0 01-2.94-3.6v-.04c.5.27 1.06.44 1.66.46a3.68 3.68 0 01-1.63-3.06c0-.67.18-1.3.5-1.84 1.81 2.22 4.51 3.68 7.56 3.83-.06-.27-.1-.55-.1-.84A3.67 3.67 0 0112.693 0c1.06 0 2.01.44 2.68 1.16.83-.17 1.62-.47 2.33-.89-.28.85-.86 1.57-1.62 2.02a7.08 7.08 0 002.11-.57z" fill="#fff"/></svg></svg>