<svg width="12" height="11" fill="none" xmlns="http://www.w3.org/2000/svg"><path d="M11.539.923H5.077A.924.924 0 0 0 4.154 0H3.23a.924.924 0 0 0-.923.923H.462a.461.461 0 1 0 0 .923h1.846c0 .51.414.923.923.923h.923c.509 0 .923-.414.923-.923h6.462a.461.461 0 1 0 0-.923Zm-8.308.923V.923h.923v.923h-.923ZM11.539 4.615h-2.77a.924.924 0 0 0-.923-.923h-.923A.924.924 0 0 0 6 4.615H.462a.461.461 0 1 0 0 .924H6c0 .509.414.923.923.923h.923c.51 0 .923-.414.923-.923h2.77a.461.461 0 1 0 0-.924Zm-4.616.924v-.924h.923v.924h-.923ZM11.539 8.308H5.077a.924.924 0 0 0-.923-.923H3.23a.924.924 0 0 0-.923.923H.462a.461.461 0 1 0 0 .923h1.846c0 .509.414.923.923.923h.923c.509 0 .923-.414.923-.923h6.462a.461.461 0 1 0 0-.923ZM3.23 9.23v-.923h.923v.923h-.923Z" fill="#000"/></svg>